<?xml version="1.0" encoding="UTF-8"?>
<svg id="Layer_2" data-name="Layer 2" xmlns="http://www.w3.org/2000/svg" viewBox="0 0 449.73 105.45">
  <defs>
    <style>
      .cls-1 {
        fill: #fff;
      }
    </style>
  </defs>
  <g id="Layer_1-2" data-name="Layer 1">
    <path class="cls-1" d="M14.26,62.75V.97h11.95V62.75H14.26Zm8.17,0v-10.63h15.73c3.98,0,7.47-.83,10.46-2.5,2.99-1.67,5.32-4.03,6.99-7.07,1.67-3.05,2.5-6.65,2.5-10.81s-.85-7.57-2.55-10.59c-1.7-3.02-4.04-5.36-7.03-7.03-2.99-1.67-6.45-2.5-10.37-2.5h-15.99V.97h16.17c4.57,0,8.8,.76,12.7,2.28,3.9,1.52,7.3,3.68,10.19,6.46,2.9,2.78,5.15,6.05,6.77,9.8,1.61,3.75,2.42,7.85,2.42,12.3s-.81,8.57-2.42,12.35c-1.61,3.78-3.85,7.06-6.72,9.84-2.87,2.78-6.25,4.94-10.15,6.46-3.9,1.52-8.1,2.28-12.61,2.28H22.43Z"/>
    <path class="cls-1" d="M98.98,63.63c-4.45,0-8.41-.95-11.86-2.86-3.46-1.9-6.2-4.53-8.22-7.87-2.02-3.34-3.03-7.15-3.03-11.43s.98-7.98,2.94-11.29c1.96-3.31,4.64-5.95,8.04-7.91,3.4-1.96,7.18-2.94,11.34-2.94s7.72,.92,10.85,2.77c3.13,1.85,5.59,4.37,7.38,7.56,1.79,3.19,2.68,6.81,2.68,10.85,0,.76-.04,1.54-.13,2.33s-.25,1.68-.48,2.68l-35.68,.09v-8.61l30.32-.09-4.66,3.6c-.12-2.52-.57-4.63-1.36-6.33-.79-1.7-1.93-3-3.43-3.91-1.49-.91-3.33-1.36-5.49-1.36-2.28,0-4.28,.51-5.98,1.54-1.7,1.03-3,2.46-3.91,4.31-.91,1.85-1.36,4.03-1.36,6.55s.48,4.82,1.45,6.72c.97,1.9,2.36,3.37,4.17,4.39,1.82,1.03,3.92,1.54,6.33,1.54,2.17,0,4.13-.37,5.89-1.1,1.76-.73,3.28-1.83,4.57-3.29l6.77,6.77c-2.05,2.4-4.56,4.22-7.51,5.45-2.96,1.23-6.17,1.85-9.62,1.85Z"/>
    <path class="cls-1" d="M139.32,62.75l-18.72-42.45h12.66l13.45,34.98h-6.24l13.53-34.98h12.22l-18.63,42.45h-8.26Z"/>
    <path class="cls-1" d="M207.04,63.63c-4.51,0-8.7-.81-12.57-2.42-3.87-1.61-7.25-3.87-10.15-6.77-2.9-2.9-5.13-6.28-6.68-10.15-1.55-3.87-2.33-8.03-2.33-12.48s.78-8.61,2.33-12.48c1.55-3.87,3.78-7.24,6.68-10.11,2.9-2.87,6.27-5.13,10.11-6.77,3.84-1.64,8.04-2.46,12.61-2.46,4.92,0,9.26,.81,13.01,2.42,3.75,1.61,7.06,3.82,9.93,6.63l-8.09,8.09c-1.7-1.87-3.78-3.34-6.24-4.4-2.46-1.05-5.33-1.58-8.61-1.58-2.87,0-5.49,.48-7.87,1.45-2.37,.97-4.44,2.37-6.2,4.22-1.76,1.85-3.11,4.04-4.04,6.59-.94,2.55-1.41,5.35-1.41,8.39s.47,5.92,1.41,8.44c.94,2.52,2.28,4.7,4.04,6.55,1.76,1.85,3.82,3.27,6.2,4.26,2.37,1,4.99,1.49,7.87,1.49,3.46,0,6.43-.53,8.92-1.58,2.49-1.05,4.58-2.55,6.28-4.48l8.09,8.08c-2.87,2.87-6.21,5.1-10.02,6.68-3.81,1.58-8.23,2.37-13.27,2.37Z"/>
    <path class="cls-1" d="M241.7,63.46V1.8h11.51V63.46h-11.51Zm28.56,0v-23.62c0-2.44-.79-4.43-2.37-5.97-1.58-1.53-3.63-2.3-6.15-2.3-1.64,0-3.11,.34-4.39,1.02-1.29,.68-2.3,1.65-3.03,2.9-.73,1.25-1.1,2.7-1.1,4.35l-4.48-2.22c0-3.24,.7-6.07,2.11-8.49,1.41-2.42,3.35-4.31,5.84-5.67,2.49-1.36,5.35-2.05,8.57-2.05s6.08,.68,8.57,2.05c2.49,1.36,4.44,3.24,5.84,5.63s2.11,5.15,2.11,8.27v26.1h-11.51Z"/>
    <path class="cls-1" d="M308.84,64.34c-3.87,0-7.35-.97-10.46-2.9-3.11-1.93-5.54-4.57-7.29-7.91-1.76-3.34-2.64-7.09-2.64-11.25s.88-8,2.64-11.34c1.76-3.34,4.19-5.98,7.29-7.91,3.11-1.93,6.59-2.9,10.46-2.9,3.05,0,5.77,.62,8.17,1.85,2.4,1.23,4.32,2.94,5.76,5.14,1.43,2.2,2.21,4.67,2.33,7.43v15.29c-.12,2.81-.89,5.3-2.33,7.47-1.44,2.17-3.36,3.88-5.76,5.14-2.4,1.26-5.13,1.89-8.17,1.89Zm2.11-10.63c3.22,0,5.83-1.07,7.82-3.21,1.99-2.14,2.99-4.91,2.99-8.31,0-2.23-.45-4.2-1.36-5.93-.91-1.73-2.17-3.08-3.78-4.04-1.61-.97-3.5-1.45-5.67-1.45s-3.97,.48-5.58,1.45c-1.61,.97-2.87,2.32-3.78,4.04-.91,1.73-1.36,3.71-1.36,5.93s.45,4.29,1.36,6.02c.91,1.73,2.17,3.08,3.78,4.04,1.61,.97,3.47,1.45,5.58,1.45Zm10.19,9.76v-11.43l1.85-10.37-1.85-10.19v-10.46h11.42V63.46h-11.42Z"/>
    <path class="cls-1" d="M342.77,81.21V21.01h11.51v11.16l-1.93,10.28,1.85,10.28v28.47h-11.43Zm23.55-16.87c-3.05,0-5.8-.63-8.26-1.89-2.46-1.26-4.42-2.97-5.89-5.14-1.47-2.17-2.26-4.66-2.37-7.47v-15.03c.12-2.81,.92-5.32,2.42-7.51,1.49-2.2,3.46-3.94,5.89-5.23,2.43-1.29,5.17-1.93,8.22-1.93,3.92,0,7.44,.97,10.55,2.9,3.1,1.93,5.55,4.57,7.34,7.91,1.79,3.34,2.68,7.12,2.68,11.34s-.89,7.91-2.68,11.25c-1.79,3.34-4.23,5.98-7.34,7.91-3.11,1.93-6.62,2.9-10.55,2.9Zm-2.02-10.63c2.11,0,3.98-.48,5.62-1.45,1.64-.97,2.91-2.31,3.82-4.04,.91-1.73,1.36-3.73,1.36-6.02s-.45-4.2-1.36-5.93c-.91-1.73-2.18-3.08-3.82-4.04-1.64-.97-3.52-1.45-5.62-1.45s-3.9,.48-5.54,1.45c-1.64,.97-2.92,2.32-3.82,4.04-.91,1.73-1.36,3.71-1.36,5.93s.45,4.29,1.36,6.02c.91,1.73,2.17,3.08,3.78,4.04,1.61,.97,3.47,1.45,5.58,1.45Z"/>
    <path class="cls-1" d="M390.05,56.87l22.5-29.27h13.89l-22.5,29.27h-13.89Zm0,6.59v-6.59l9.14-3.43h26.72v10.02h-35.86Zm1.58-32.43v-10.02h34.8v6.59l-9.23,3.43h-25.57Z"/>
    <path class="cls-1" d="M442.61,65.76c-2.11,0-3.84-.7-5.19-2.11-1.35-1.41-2.02-3.13-2.02-5.18s.67-3.78,2.02-5.19c1.35-1.41,3.08-2.11,5.19-2.11s3.75,.7,5.1,2.11c1.35,1.41,2.02,3.13,2.02,5.19s-.67,3.78-2.02,5.18c-1.35,1.41-3.05,2.11-5.1,2.11Z"/>
    <path class="cls-1" d="M0,96.65c54.16-7.28,109.9-12.93,164.42-17.13,16.54-1.25,33.07-2.39,49.69-2.77,3.52-.06,7.14-.12,10.75,.13,1.24,.1,2.87,.24,4.22,.81,2.28,.83,3.83,3.69,2.91,6.11-.68,2.04-2.48,3.04-4.1,3.65-9.36,3.35-22.9,7.65-31.84,11.44-1.48,.66-3.15,1.4-4.26,2.23,1.06-1.08,.98-3.55-.18-4.69-.45-.45-.56-.5-.8-.62,1.73,.5,3.71,.55,5.64,.66,5.23,.19,10.71,.02,16.14-.2,76.47-4.51,154.12-11.77,230.64-15.25-59.72,7.56-120.72,13.96-180.66,19.96-21.92,1.97-44.4,4.74-66.46,4.45-3.75-.3-8.19,.02-11.19-2.94-2.43-2.6-1.33-6.4,.92-8.17,2.14-1.78,4.28-2.68,6.55-3.74,5.33-2.33,10.53-4.15,15.77-6.02,5.22-1.86,10.45-3.58,15.64-5.36l.84-.29c.19-.07,.39-.17,.28-.11-2.7,1.69-2.25,6.27,.79,7.35-3.64-.54-7.63-.37-11.46-.38-69.01,2.22-145.23,8.4-214.26,10.88H0Z"/>
  </g>
</svg>